<?xml version="1.0" encoding="UTF-8" standalone="no"?>
<!-- Created with Inkscape (http://www.inkscape.org/) -->

<svg
   width="8.745574mm"
   height="12.080222mm"
   viewBox="0 0 8.745574 12.080222"
   version="1.1"
   id="svg1"
   xml:space="preserve"
   xmlns="http://www.w3.org/2000/svg"
   xmlns:svg="http://www.w3.org/2000/svg"><defs
     id="defs1" /><g
     id="layer1"
     transform="translate(-103.21428,-186.14077)"><g
       id="g45"><circle
         style="fill:#f9f9f9;fill-opacity:1;stroke:none;stroke-width:1.06854;stroke-dasharray:1.06854, 1.06854;stroke-opacity:1"
         id="circle4"
         cx="107.8699"
         cy="190.60826"
         r="3.376538" /><g
         id="g43"><g
           id="g16"><path
             id="path5"
             style="fill:#7d1741;fill-opacity:1;stroke:#1b0d35;stroke-width:0.132292;stroke-linejoin:round;stroke-dasharray:none;stroke-dashoffset:0;stroke-opacity:1"
             d="m 107.58711,186.20677 v 5.2e-4 c -0.10399,0 -0.20687,0.005 -0.30902,0.0124 -0.0178,10e-4 -0.0355,0.003 -0.0532,0.004 -0.21947,0.0183 -0.43397,0.0529 -0.64285,0.10284 -0.19368,0.0463 -0.38231,0.10573 -0.56483,0.17725 -0.0782,0.0306 -0.15514,0.0632 -0.23099,0.0982 -0.001,5.5e-4 -0.002,0.001 -0.004,0.002 -0.1534,0.0709 -0.30194,0.15041 -0.44494,0.23823 -0.0672,0.0413 -0.13322,0.0844 -0.19792,0.12919 -0.0136,0.009 -0.0268,0.0189 -0.0403,0.0284 -0.0489,0.0347 -0.0974,0.0698 -0.14469,0.10646 -0.0203,0.0157 -0.0404,0.0315 -0.0605,0.0475 -0.0439,0.0352 -0.0867,0.0716 -0.12919,0.10852 -0.0172,0.0149 -0.0347,0.0292 -0.0517,0.0444 -0.0583,0.0523 -0.11518,0.10589 -0.17053,0.16123 -0.0716,0.0716 -0.13973,0.14674 -0.20619,0.22324 -0.0133,0.0153 -0.0267,0.031 -0.0398,0.0465 -0.0628,0.0743 -0.12316,0.15039 -0.18087,0.22893 -0.0102,0.0138 -0.02,0.0279 -0.03,0.0419 -0.0591,0.0824 -0.11573,0.1666 -0.16898,0.25321 -4.4e-4,7.3e-4 -0.001,5.5e-4 -0.002,0.002 -0.0563,0.0917 -0.10868,0.18609 -0.15813,0.28216 -0.002,0.004 -0.005,0.008 -0.007,0.0124 -0.002,0.004 -0.003,0.008 -0.005,0.0119 -0.049,0.0966 -0.0947,0.19496 -0.13642,0.29559 -0.043,0.10366 -0.0819,0.20921 -0.11679,0.31678 v 5.2e-4 c -0.13602,0.41896 -0.2108,0.86586 -0.21084,1.33015 0.002,0.20119 0.0173,0.402 0.047,0.60099 0.0145,0.0828 0.0314,0.1652 0.0506,0.24702 0.0219,0.1149 0.0484,0.22884 0.0796,0.34158 0.0287,0.0929 0.0606,0.18473 0.0956,0.27543 3.9e-4,0.001 6.7e-4,0.002 0.001,0.003 0.0345,0.0961 0.0724,0.19086 0.11369,0.28422 5.9e-4,0.001 0.001,0.003 0.002,0.004 0.0414,0.0899 0.0859,0.17825 0.13332,0.2651 10e-4,0.002 0.002,0.004 0.004,0.007 0.001,0.002 0.002,0.005 0.004,0.007 0.0205,0.0427 0.0417,0.0851 0.0636,0.12712 l -0.0181,-0.002 0.0863,0.12713 c 0.0267,0.0404 0.0541,0.0804 0.0822,0.11989 1.1393,1.67171 2.27443,3.34627 3.41478,5.01726 l 0.14624,0.21394 v 0.003 l 0.001,-0.002 0.001,0.002 v -0.003 l 0.14624,-0.21342 v -5.2e-4 c 1.14035,-1.67099 2.27549,-3.34555 3.41478,-5.01726 0.0281,-0.0395 0.0555,-0.0795 0.0822,-0.11989 l 0.0863,-0.12713 -0.0181,0.002 c 0.0232,-0.0444 0.0456,-0.0892 0.0672,-0.13436 0.001,-0.002 0.002,-0.004 0.004,-0.007 0.0474,-0.0868 0.0919,-0.17522 0.13333,-0.2651 6e-4,-0.001 0.001,-0.003 0.002,-0.004 0.0135,-0.0306 0.0244,-0.0622 0.0372,-0.093 0.0266,-0.0645 0.0541,-0.12861 0.0775,-0.1943 0.035,-0.0907 0.0669,-0.18258 0.0956,-0.27544 0.0312,-0.11274 0.0577,-0.22668 0.0796,-0.34158 0.0193,-0.0818 0.0361,-0.16421 0.0506,-0.24701 0.0297,-0.19899 0.045,-0.39981 0.047,-0.601 -4e-5,-0.46429 -0.0748,-0.91119 -0.21084,-1.33015 v -5.2e-4 c -0.0349,-0.10757 -0.0738,-0.21311 -0.11679,-0.31677 -0.0417,-0.10063 -0.0875,-0.19898 -0.13643,-0.29559 -0.002,-0.004 -0.003,-0.008 -0.005,-0.0114 -0.002,-0.004 -0.005,-0.008 -0.007,-0.0124 -0.0495,-0.0961 -0.10183,-0.19047 -0.15813,-0.28216 -4.5e-4,-7.4e-4 -10e-4,-0.001 -0.002,-0.002 -0.0556,-0.0904 -0.11483,-0.17825 -0.17673,-0.26407 -0.006,-0.008 -0.0113,-0.0163 -0.0171,-0.0243 -0.061,-0.0834 -0.12498,-0.16419 -0.19172,-0.24288 -0.009,-0.0104 -0.0179,-0.0206 -0.0269,-0.031 -0.0686,-0.0793 -0.1393,-0.15689 -0.21342,-0.231 -0.0553,-0.0553 -0.11225,-0.10896 -0.17053,-0.16123 -0.0161,-0.0144 -0.0328,-0.0282 -0.0491,-0.0424 -0.0456,-0.0397 -0.0918,-0.0785 -0.13901,-0.11627 -0.0152,-0.0121 -0.0307,-0.0238 -0.046,-0.0357 -0.0503,-0.0391 -0.1015,-0.0768 -0.15348,-0.11369 -0.013,-0.009 -0.0255,-0.0188 -0.0387,-0.0279 -0.0647,-0.0448 -0.13072,-0.0879 -0.19792,-0.1292 -0.143,-0.0878 -0.29153,-0.16729 -0.44494,-0.23822 -0.001,-5.5e-4 -0.002,-10e-4 -0.004,-0.002 -0.0759,-0.035 -0.15284,-0.0676 -0.231,-0.0982 -0.18252,-0.0715 -0.37114,-0.13091 -0.56482,-0.17725 -0.20889,-0.05 -0.42339,-0.0845 -0.64286,-0.10283 -0.0178,-0.002 -0.0355,-0.003 -0.0532,-0.004 -0.10215,-0.007 -0.20503,-0.0124 -0.30903,-0.0124 z m 0.0341,1.43609 a 2.8706903,2.8706903 0 0 1 2.87063,2.87062 2.8706903,2.8706903 0 0 1 -2.87063,2.87063 2.8706903,2.8706903 0 0 1 -2.87063,-2.87063 2.8706903,2.8706903 0 0 1 2.87063,-2.87062 z" /><g
             id="g15"
             transform="translate(0.033695,-17.212774)" /></g><path
           id="path42"
           style="fill:#7b163f;fill-opacity:1;stroke-width:0.209237"
           d="m 107.16874,188.51924 c -0.39546,0 -0.73446,0.23212 -0.89348,0.56689 -0.33059,0.1109 -0.57154,0.42084 -0.57154,0.7891 0,0.38918 0.26797,0.71302 0.62786,0.80718 v 1.80816 h 2.30167 v -0.41858 h 0.41858 c 0.23016,0 0.41858,-0.18842 0.41858,-0.41858 v -1.25522 c 0,-0.23016 -0.18842,-0.41858 -0.41858,-0.41858 h -0.32659 c 0.0733,-0.12345 0.1173,-0.26583 0.1173,-0.41857 0,-0.46242 -0.37475,-0.83665 -0.83716,-0.83665 -0.0712,0 -0.13819,0.0102 -0.20515,0.0269 a 0.98487427,0.98487427 0 0 0 -0.63149,-0.23203 z m 0,0.41858 c 0.16529,0 0.29056,0.0732 0.3638,0.13591 l 0.1633,0.13591 c 0,0 0.13383,-0.0667 0.30748,-0.0667 0.23016,0 0.41858,0.18792 0.41858,0.41807 h -0.62787 c -0.69467,0 -0.80331,0.73225 -1.25316,0.73225 -0.23016,0 -0.41858,-0.1879 -0.41858,-0.41806 0,-0.17785 0.11523,-0.3352 0.28681,-0.39378 l 0.16743,-0.0563 0.0754,-0.15917 c 0.0983,-0.20296 0.29496,-0.32814 0.51676,-0.32814 z m 0.76946,1.11776 h 0.34365 v 2.07791 h -0.34365 z m -0.3147,0.0558 v 2.0221 h -0.35347 v -1.66347 c 0.0632,-0.0573 0.11929,-0.12448 0.16381,-0.2036 0.0372,-0.066 0.1056,-0.11734 0.18966,-0.15503 z m 1.00975,0.2868 h 0.41858 v 1.25522 h -0.41858 z m -1.68568,0.27441 v 1.46089 h -0.30851 l -0.0279,-1.41284 c 0.12436,0.007 0.22017,0.0294 0.33642,-0.0481 z" /></g></g></g></svg>
