<?xml version="1.0" encoding="UTF-8" standalone="no"?>
<!-- Created with Inkscape (http://www.inkscape.org/) -->

<svg
   width="8.8918505mm"
   height="11.750139mm"
   viewBox="0 0 8.8918505 11.750139"
   version="1.1"
   id="svg1"
   xml:space="preserve"
   xmlns="http://www.w3.org/2000/svg"
   xmlns:svg="http://www.w3.org/2000/svg"><defs
     id="defs1" /><g
     id="layer1"
     transform="translate(-103.10745,-203.33122)"><g
       id="g44"><circle
         style="fill:#f9f9f9;fill-opacity:1;stroke:none;stroke-width:1.06854;stroke-dasharray:1.06854, 1.06854;stroke-opacity:1"
         id="circle6"
         cx="107.5477"
         cy="207.66742"
         r="3.376538" /><g
         id="g42"><g
           id="g7"
           transform="translate(59.412016,3.1606669)"
           style="fill:#7b163f;fill-opacity:1;stroke:#1b0d35;stroke-opacity:1"><path
             id="path7"
             style="fill:#7b163f;fill-opacity:1;stroke:#1b0d35;stroke-width:0.132292;stroke-linejoin:round;stroke-dasharray:none;stroke-dashoffset:0;stroke-opacity:1"
             d="m 48.201564,200.2367 c -0.06912,10e-4 -0.138793,0.004 -0.208773,0.0103 -1.469461,-0.0609 -2.909345,0.79546 -3.683496,2.02417 -1.076272,1.69034 -0.390006,3.83967 0.542603,5.42964 0.594537,1.00639 1.66162,2.59484 3.22926,4.15375 1.409703,-1.12122 2.408046,-2.62027 3.349666,-4.14445 0.932609,-1.58996 1.618875,-3.73931 0.542603,-5.42964 -0.774151,-1.22871 -2.214035,-2.08509 -3.683496,-2.02416 -0.02962,-0.002 -0.05888,-0.003 -0.08837,-0.004 z m -0.05994,1.31206 a 3.1063752,3.1063752 0 0 1 3.106271,3.10627 3.1063752,3.1063752 0 0 1 -3.106271,3.10679 3.1063752,3.1063752 0 0 1 -3.10627,-3.10679 3.1063752,3.1063752 0 0 1 1.450557,-2.62619 c 7.14e-4,-4.8e-4 0.0014,-0.001 0.0021,-0.002 0.101672,-0.0677 0.209675,-0.12427 0.320393,-0.17467 a 3.1063752,3.1063752 0 0 1 0.09353,-0.0419 c 0.02122,-0.008 0.04257,-0.0165 0.06408,-0.0243 a 3.1063752,3.1063752 0 0 1 1.175638,-0.23772 z" /></g><path
           id="path2-5"
           style="fill:#7b163f;fill-opacity:1;stroke-width:0.209237"
           d="m 107.13505,205.69455 c -0.39546,0 -0.73446,0.23212 -0.89348,0.56689 -0.33059,0.1109 -0.57154,0.42084 -0.57154,0.7891 0,0.38918 0.26797,0.71302 0.62786,0.80718 v 1.80816 h 2.30167 v -0.41858 h 0.41858 c 0.23016,0 0.41858,-0.18842 0.41858,-0.41858 v -1.25522 c 0,-0.23016 -0.18842,-0.41858 -0.41858,-0.41858 h -0.32659 c 0.0733,-0.12345 0.1173,-0.26583 0.1173,-0.41857 0,-0.46242 -0.37475,-0.83665 -0.83716,-0.83665 -0.0712,0 -0.13819,0.0102 -0.20515,0.0269 a 0.98487427,0.98487427 0 0 0 -0.63149,-0.23203 z m 0,0.41858 c 0.16529,0 0.29056,0.0732 0.3638,0.13591 l 0.1633,0.13591 c 0,0 0.13383,-0.0667 0.30748,-0.0667 0.23016,0 0.41858,0.18792 0.41858,0.41807 h -0.62787 c -0.69467,0 -0.80331,0.73225 -1.25316,0.73225 -0.23016,0 -0.41858,-0.1879 -0.41858,-0.41806 0,-0.17785 0.11523,-0.3352 0.28681,-0.39378 l 0.16743,-0.0563 0.0755,-0.15917 c 0.0983,-0.20296 0.29496,-0.32814 0.51676,-0.32814 z m 0.76946,1.11776 h 0.34365 v 2.07791 h -0.34365 z m -0.3147,0.0558 v 2.0221 h -0.35347 v -1.66347 c 0.0632,-0.0573 0.11929,-0.12448 0.16381,-0.2036 0.0372,-0.066 0.1056,-0.11734 0.18966,-0.15503 z m 1.00975,0.2868 h 0.41858 v 1.25522 h -0.41858 z m -1.68568,0.27441 v 1.46089 h -0.30851 l -0.0279,-1.41284 c 0.12436,0.007 0.22017,0.0294 0.33642,-0.048 z" /></g><path
         style="color:#000000;fill:#ff9955;stroke:none;-inkscape-stroke:none"
         d="m 107.41255,207.02005 v 2.20446"
         id="path37" /><path
         style="color:#000000;fill:#aa4400;fill-opacity:1;-inkscape-stroke:none"
         d="m 106.76039,207.54096 v 1.68355"
         id="path40" /></g></g></svg>
