
<svg xmlns="http://www.w3.org/2000/svg" xmlns:xlink="http://www.w3.org/1999/xlink" viewBox="0 0 375 667" width="375" height="667" fill="none">
  <rect width="375" height="667" fill="#fff"></rect>
  <g opacity="100%">
    <rect x="0" y="0" width="375" height="64" fill="#fff" filter="url(#filter_dshadow_10_0_2_0303031a)"></rect>
  </g>
  <svg xmlns="http://www.w3.org/2000/svg" viewBox="0 0 448 512" width="14" height="14" fill="#030303" x="16" y="25" opacity="100%">
    <path d="M447.1 256C447.1 273.7 433.7 288 416 288H109.3l105.4 105.4c12.5 12.5 12.5 32.75 0 45.25C208.4 444.9 200.2 448 192 448s-16.38-3.125-22.62-9.375l-160-160c-12.5-12.5-12.5-32.75 0-45.25l160-160c12.5-12.5 32.75-12.5 45.25 0s12.5 32.75 0 45.25L109.3 224H416C433.7 224 447.1 238.3 447.1 256z"></path>
  </svg>
  <g opacity="100%">
    <text x="91" y="39.5" font-family="Montserrat" font-size="24" fill="#030303" letter-spacing="0" font-weight="700" font-style="normal">Leaderboard</text>
  </g>
  <g opacity="100%">
    <rect x="24" y="128" width="327" height="88" fill="#fff" rx="24" filter="url(#filter_dshadow_10_0_2_0303031a)"></rect>
  </g>
  <g opacity="100%">
    <rect x="40" y="148" width="48" height="48" fill="#fff" rx="24" filter="url(#filter_dshadow_10_0_2_0303031a)"></rect>
  </g>
  <g opacity="100%">
    <text x="51" y="177.5" font-family="Montserrat" font-size="18" fill="#030303" letter-spacing="0" font-weight="700" font-style="normal">JD</text>
  </g>
  <g opacity="100%">
    <text x="104" y="165" font-family="Montserrat" font-size="20" fill="#030303" letter-spacing="0" font-weight="600" font-style="normal">John Doe</text>
  </g>
  <g opacity="100%">
    <text x="104" y="191.5" font-family="Montserrat" font-size="18" fill="#030303" letter-spacing="0" font-weight="400" font-style="normal">Score: 3500</text>
  </g>
  <svg xmlns="http://www.w3.org/2000/svg" viewBox="0 0 576 512" width="27" height="27" fill="#030303" x="308" y="158.5" opacity="100%">
    <path d="M576 136c0 22.09-17.91 40-40 40c-.248 0-.4551-.1266-.7031-.1305l-50.52 277.9C482 468.9 468.8 480 453.3 480H122.7c-15.46 0-28.72-11.06-31.48-26.27L40.71 175.9C40.46 175.9 40.25 176 39.1 176c-22.09 0-40-17.91-40-40S17.91 96 39.1 96s40 17.91 40 40c0 8.998-3.521 16.89-8.537 23.57l89.63 71.7c15.91 12.73 39.5 7.544 48.61-10.68l57.6-115.2C255.1 98.34 247.1 86.34 247.1 72C247.1 49.91 265.9 32 288 32s39.1 17.91 39.1 40c0 14.34-7.963 26.34-19.3 33.4l57.6 115.2c9.111 18.22 32.71 23.4 48.61 10.68l89.63-71.7C499.5 152.9 496 144.1 496 136C496 113.9 513.9 96 536 96S576 113.9 576 136z"></path>
  </svg>
  <g opacity="100%">
    <rect x="24" y="232" width="327" height="88" fill="#fff" rx="24" filter="url(#filter_dshadow_10_0_2_0303031a)"></rect>
  </g>
  <g opacity="100%">
    <rect x="40" y="252" width="48" height="48" fill="#fff" rx="24" filter="url(#filter_dshadow_10_0_2_0303031a)"></rect>
  </g>
  <g opacity="100%">
    <text x="50" y="281.5" font-family="Montserrat" font-size="18" fill="#030303" letter-spacing="0" font-weight="700" font-style="normal">AB</text>
  </g>
  <g opacity="100%">
    <text x="104" y="269" font-family="Montserrat" font-size="20" fill="#030303" letter-spacing="0" font-weight="600" font-style="normal">Alice Brown</text>
  </g>
  <g opacity="100%">
    <text x="104" y="295.5" font-family="Montserrat" font-size="18" fill="#030303" letter-spacing="0" font-weight="400" font-style="normal">Score: 3200</text>
  </g>
  <svg xmlns="http://www.w3.org/2000/svg" viewBox="0 0 576 512" width="27" height="27" fill="#030303" x="308" y="262.5" opacity="100%">
    <path d="M576 136c0 22.09-17.91 40-40 40c-.248 0-.4551-.1266-.7031-.1305l-50.52 277.9C482 468.9 468.8 480 453.3 480H122.7c-15.46 0-28.72-11.06-31.48-26.27L40.71 175.9C40.46 175.9 40.25 176 39.1 176c-22.09 0-40-17.91-40-40S17.91 96 39.1 96s40 17.91 40 40c0 8.998-3.521 16.89-8.537 23.57l89.63 71.7c15.91 12.73 39.5 7.544 48.61-10.68l57.6-115.2C255.1 98.34 247.1 86.34 247.1 72C247.1 49.91 265.9 32 288 32s39.1 17.91 39.1 40c0 14.34-7.963 26.34-19.3 33.4l57.6 115.2c9.111 18.22 32.71 23.4 48.61 10.68l89.63-71.7C499.5 152.9 496 144.1 496 136C496 113.9 513.9 96 536 96S576 113.9 576 136z"></path>
  </svg>
  <g opacity="100%">
    <rect x="24" y="336" width="327" height="88" fill="#fff" rx="24" filter="url(#filter_dshadow_10_0_2_0303031a)"></rect>
  </g>
  <g opacity="100%">
    <rect x="40" y="356" width="48" height="48" fill="#fff" rx="24" filter="url(#filter_dshadow_10_0_2_0303031a)"></rect>
  </g>
  <g opacity="100%">
    <text x="52" y="385.5" font-family="Montserrat" font-size="18" fill="#030303" letter-spacing="0" font-weight="700" font-style="normal">EF</text>
  </g>
  <g opacity="100%">
    <text x="104" y="373" font-family="Montserrat" font-size="20" fill="#030303" letter-spacing="0" font-weight="600" font-style="normal">Emma Foster</text>
  </g>
  <g opacity="100%">
    <text x="104" y="399.5" font-family="Montserrat" font-size="18" fill="#030303" letter-spacing="0" font-weight="400" font-style="normal">Score: 3100</text>
  </g>
  <svg xmlns="http://www.w3.org/2000/svg" viewBox="0 0 576 512" width="27" height="27" fill="#030303" x="308" y="366.5" opacity="100%">
    <path d="M576 136c0 22.09-17.91 40-40 40c-.248 0-.4551-.1266-.7031-.1305l-50.52 277.9C482 468.9 468.8 480 453.3 480H122.7c-15.46 0-28.72-11.06-31.48-26.27L40.71 175.9C40.46 175.9 40.25 176 39.1 176c-22.09 0-40-17.91-40-40S17.91 96 39.1 96s40 17.91 40 40c0 8.998-3.521 16.89-8.537 23.57l89.63 71.7c15.91 12.73 39.5 7.544 48.61-10.68l57.6-115.2C255.1 98.34 247.1 86.34 247.1 72C247.1 49.91 265.9 32 288 32s39.1 17.91 39.1 40c0 14.34-7.963 26.34-19.3 33.4l57.6 115.2c9.111 18.22 32.71 23.4 48.61 10.68l89.63-71.7C499.5 152.9 496 144.1 496 136C496 113.9 513.9 96 536 96S576 113.9 576 136z"></path>
  </svg>
  <g opacity="100%">
    <rect x="24" y="440" width="327" height="88" fill="#fff" rx="24" filter="url(#filter_dshadow_10_0_2_0303031a)"></rect>
  </g>
  <g opacity="100%">
    <rect x="40" y="460" width="48" height="48" fill="#fff" rx="24" filter="url(#filter_dshadow_10_0_2_0303031a)"></rect>
  </g>
  <g opacity="100%">
    <text x="52" y="489.5" font-family="Montserrat" font-size="18" fill="#030303" letter-spacing="0" font-weight="700" font-style="normal">JK</text>
  </g>
  <g opacity="100%">
    <text x="104" y="477" font-family="Montserrat" font-size="20" fill="#030303" letter-spacing="0" font-weight="600" font-style="normal">Jane Kingston</text>
  </g>
  <g opacity="100%">
    <text x="104" y="503.5" font-family="Montserrat" font-size="18" fill="#030303" letter-spacing="0" font-weight="400" font-style="normal">Score: 2900</text>
  </g>
  <g opacity="100%">
    <rect x="0" y="603" width="375" height="64" fill="#fff" filter="url(#filter_dshadow_10_0_2_0303031a)"></rect>
  </g>
  <svg xmlns="http://www.w3.org/2000/svg" viewBox="0 0 576 512" width="27" height="27" fill="#030303" x="49" y="621.5" opacity="100%">
    <path d="M575.8 255.5C575.8 273.5 560.8 287.6 543.8 287.6H511.8L512.5 447.7C512.5 450.5 512.3 453.1 512 455.8V472C512 494.1 494.1 512 472 512H456C454.9 512 453.8 511.1 452.7 511.9C451.3 511.1 449.9 512 448.5 512H392C369.9 512 352 494.1 352 472V384C352 366.3 337.7 352 320 352H256C238.3 352 224 366.3 224 384V472C224 494.1 206.1 512 184 512H128.1C126.6 512 125.1 511.9 123.6 511.8C122.4 511.9 121.2 512 120 512H104C81.91 512 64 494.1 64 472V360C64 359.1 64.03 358.1 64.09 357.2V287.6H32.05C14.02 287.6 0 273.5 0 255.5C0 246.5 3.004 238.5 10.01 231.5L266.4 8.016C273.4 1.002 281.4 0 288.4 0C295.4 0 303.4 2.004 309.5 7.014L564.8 231.5C572.8 238.5 576.9 246.5 575.8 255.5L575.8 255.5z"></path>
  </svg>
  <svg xmlns="http://www.w3.org/2000/svg" viewBox="0 0 576 512" width="27" height="27" fill="#030303" x="143" y="621.5" opacity="100%">
    <path d="M384 476.1L192 421.2V35.93L384 90.79V476.1zM416 88.37L543.1 37.53C558.9 31.23 576 42.84 576 59.82V394.6C576 404.4 570 413.2 560.9 416.9L416 474.8V88.37zM15.09 95.13L160 37.17V423.6L32.91 474.5C17.15 480.8 0 469.2 0 452.2V117.4C0 107.6 5.975 98.78 15.09 95.13V95.13z"></path>
  </svg>
  <svg xmlns="http://www.w3.org/2000/svg" viewBox="0 0 448 512" width="21" height="21" fill="#030303" x="304" y="624.5" opacity="100%">
    <path d="M224 256c70.7 0 128-57.31 128-128s-57.3-128-128-128C153.3 0 96 57.31 96 128S153.3 256 224 256zM274.7 304H173.3C77.61 304 0 381.6 0 477.3c0 19.14 15.52 34.67 34.66 34.67h378.7C432.5 512 448 496.5 448 477.3C448 381.6 370.4 304 274.7 304z"></path>
  </svg>
  <svg xmlns="http://www.w3.org/2000/svg" height="20" width="20" viewBox="0 0 24 24" fill="#030303" x="335" y="22" opacity="100%">
    <path d="M0 0h24v24H0z" fill="none"></path>
    <path d="M7.58 4.08 6.15 2.65C3.75 4.48 2.17 7.3 2.03 10.5h2a8.445 8.445 0 0 1 3.55-6.42zm12.39 6.42h2c-.15-3.2-1.73-6.02-4.12-7.85l-1.42 1.43a8.495 8.495 0 0 1 3.54 6.42zM18 11c0-3.07-1.64-5.64-4.5-6.32V4c0-.83-.67-1.5-1.5-1.5s-1.5.67-1.5 1.5v.68C7.63 5.36 6 7.92 6 11v5l-2 2v1h16v-1l-2-2v-5zm-6 11c.14 0 .27-.01.4-.04.65-.14 1.18-.58 1.44-1.18.1-.24.15-.5.15-.78h-4c.01 1.1.9 2 2.01 2z"></path>
  </svg>
  <defs>
    <filter id="filter_dshadow_10_0_2_0303031a" color-interpolation-filters="sRGB" filterUnits="userSpaceOnUse">
      <feFlood flood-opacity="0" result="bg-fix"></feFlood>
      <feColorMatrix in="SourceAlpha" type="matrix" values="0 0 0 0 0 0 0 0 0 0 0 0 0 0 0 0 0 0 127 0" result="alpha"></feColorMatrix>
      <feOffset dx="0" dy="2"></feOffset>
      <feGaussianBlur stdDeviation="5"></feGaussianBlur>
      <feComposite in2="alpha" operator="out"></feComposite>
      <feColorMatrix type="matrix" values="0 0 0 0 0.011764705882352941 0 0 0 0 0.011764705882352941 0 0 0 0 0.011764705882352941 0 0 0 0.1 0"></feColorMatrix>
      <feBlend mode="normal" in2="bg-fix" result="bg-fix-filter_dshadow_10_0_2_0303031a"></feBlend>
      <feBlend in="SourceGraphic" in2="bg-fix-filter_dshadow_10_0_2_0303031a" result="shape"></feBlend>
    </filter>
    <filter id="filter_dshadow_0_0_0_00000014" color-interpolation-filters="sRGB" filterUnits="userSpaceOnUse">
      <feFlood flood-opacity="0" result="bg-fix"></feFlood>
      <feColorMatrix in="SourceAlpha" type="matrix" values="0 0 0 0 0 0 0 0 0 0 0 0 0 0 0 0 0 0 127 0" result="alpha"></feColorMatrix>
      <feOffset dx="0" dy="0"></feOffset>
      <feGaussianBlur stdDeviation="0"></feGaussianBlur>
      <feComposite in2="alpha" operator="out"></feComposite>
      <feColorMatrix type="matrix" values="0 0 0 0 0 0 0 0 0 0 0 0 0 0 0 0 0 0 0.08 0"></feColorMatrix>
      <feBlend mode="normal" in2="bg-fix" result="bg-fix-filter_dshadow_0_0_0_00000014"></feBlend>
      <feBlend in="SourceGraphic" in2="bg-fix-filter_dshadow_0_0_0_00000014" result="shape"></feBlend>
    </filter>
    <style id="google">@import url(https://fonts.googleapis.com/css2?family=Montserrat:ital,wght@0,100;0,200;0,300;0,400;0,500;0,600;0,700;0,800;0,900;1,100;1,200;1,300;1,400;1,500;1,600;1,700;1,800;1,900&amp;display=swap);
</style>
    <style id="brand"></style>
  </defs>
</svg>