
<svg xmlns="http://www.w3.org/2000/svg" xmlns:xlink="http://www.w3.org/1999/xlink" viewBox="0 0 375 671" width="375" height="671" fill="none">
  <rect width="375" height="671" fill="#fff"></rect>
  <g opacity="100%">
    <rect x="20" y="84" width="335" height="48" fill="#121212" rx="24" filter="url(#filter_dshadow_0_0_0_00000014)"></rect>
  </g>
  <g opacity="100%">
    <rect x="20" y="308" width="335" height="48" fill="#fff" rx="24" filter="url(#filter_dshadow_10_0_2_0303031a)"></rect>
  </g>
  <g opacity="100%">
    <rect x="20" y="196" width="335" height="48" fill="#121212" rx="24" filter="url(#filter_dshadow_0_0_0_00000014)"></rect>
  </g>
  <g opacity="100%">
    <rect x="20" y="420" width="335" height="48" fill="#fff" rx="24" filter="url(#filter_dshadow_10_0_2_0303031a)"></rect>
  </g>
  <g opacity="100%">
    <rect x="20" y="140" width="335" height="48" fill="#121212" rx="24" filter="url(#filter_dshadow_0_0_0_00000014)"></rect>
  </g>
  <g opacity="100%">
    <rect x="20" y="364" width="335" height="48" fill="#fff" rx="24" filter="url(#filter_dshadow_10_0_2_0303031a)"></rect>
  </g>
  <g opacity="100%">
    <rect x="20" y="252" width="335" height="48" fill="#fff" rx="24" filter="url(#filter_dshadow_10_0_2_0303031a)"></rect>
  </g>
  <g opacity="100%">
    <rect x="20" y="476" width="335" height="48" fill="#fff" rx="24" filter="url(#filter_dshadow_10_0_2_0303031a)"></rect>
  </g>
  <svg xmlns="http://www.w3.org/2000/svg" height="24" width="24" viewBox="0 0 24 24" fill="#fff" x="36" y="96" opacity="100%">
    <path d="M0 0h24v24H0z" fill="none"></path>
    <path d="M1 21h22L12 2 1 21zm12-3h-2v-2h2v2zm0-4h-2v-4h2v4z"></path>
  </svg>
  <svg xmlns="http://www.w3.org/2000/svg" height="24" width="24" viewBox="0 0 24 24" fill="#121212" x="36" y="320" opacity="100%">
    <path d="M0 0h24v24H0z" fill="none"></path>
    <path d="m21.41 11.58-9-9C12.05 2.22 11.55 2 11 2H4c-1.1 0-2 .9-2 2v7c0 .55.22 1.05.59 1.42l9 9c.36.36.86.58 1.41.58.55 0 1.05-.22 1.41-.59l7-7c.37-.36.59-.86.59-1.41 0-.55-.23-1.06-.59-1.42zM5.5 7C4.67 7 4 6.33 4 5.5S4.67 4 5.5 4 7 4.67 7 5.5 6.33 7 5.5 7z"></path>
  </svg>
  <svg xmlns="http://www.w3.org/2000/svg" viewBox="0 0 448 512" width="24" height="24" fill="#121212" x="36" y="432" opacity="100%">
    <path d="M438.6 105.4C451.1 117.9 451.1 138.1 438.6 150.6L182.6 406.6C170.1 419.1 149.9 419.1 137.4 406.6L9.372 278.6C-3.124 266.1-3.124 245.9 9.372 233.4C21.87 220.9 42.13 220.9 54.63 233.4L159.1 338.7L393.4 105.4C405.9 92.88 426.1 92.88 438.6 105.4H438.6z"></path>
  </svg>
  <svg xmlns="http://www.w3.org/2000/svg" height="24" width="24" viewBox="0 0 24 24" fill="#fff" x="36" y="208" opacity="100%">
    <path fill="none" d="M0 0h24v24H0z"></path>
    <path d="M20 4H4c-1.11 0-1.99.89-1.99 2L2 18c0 1.11.89 2 2 2h10v-2H4v-6h18V6c0-1.11-.89-2-2-2zm0 4H4V6h16v2zm4 9v2h-3v3h-2v-3h-3v-2h3v-3h2v3h3z"></path>
  </svg>
  <svg xmlns="http://www.w3.org/2000/svg" viewBox="0 0 576 512" width="24" height="24" fill="#fff" x="36" y="152" opacity="100%">
    <path d="M568.2 336.3c-13.12-17.81-38.14-21.66-55.93-8.469l-119.7 88.17h-120.6c-8.748 0-15.1-7.25-15.1-15.99c0-8.75 7.25-16 15.1-16h78.25c15.1 0 30.75-10.88 33.37-26.62c3.25-20-12.12-37.38-31.62-37.38H191.1c-26.1 0-53.12 9.25-74.12 26.25l-46.5 37.74L15.1 383.1C7.251 383.1 0 391.3 0 400v95.98C0 504.8 7.251 512 15.1 512h346.1c22.03 0 43.92-7.188 61.7-20.27l135.1-99.52C577.5 379.1 581.3 354.1 568.2 336.3zM160 176h64v64C224 248.8 231.2 256 240 256h64C312.8 256 320 248.8 320 240v-64h64c8.836 0 16-7.164 16-16V96c0-8.838-7.164-16-16-16h-64v-64C320 7.162 312.8 0 304 0h-64C231.2 0 224 7.162 224 16v64H160C151.2 80 144 87.16 144 96v64C144 168.8 151.2 176 160 176z"></path>
  </svg>
  <svg xmlns="http://www.w3.org/2000/svg" viewBox="0 0 448 512" width="24" height="24" fill="#121212" x="36" y="376" opacity="100%">
    <path d="M438.6 105.4C451.1 117.9 451.1 138.1 438.6 150.6L182.6 406.6C170.1 419.1 149.9 419.1 137.4 406.6L9.372 278.6C-3.124 266.1-3.124 245.9 9.372 233.4C21.87 220.9 42.13 220.9 54.63 233.4L159.1 338.7L393.4 105.4C405.9 92.88 426.1 92.88 438.6 105.4H438.6z"></path>
  </svg>
  <svg xmlns="http://www.w3.org/2000/svg" viewBox="0 0 448 512" width="24" height="24" fill="#121212" x="36" y="264" opacity="100%">
    <path d="M438.6 105.4C451.1 117.9 451.1 138.1 438.6 150.6L182.6 406.6C170.1 419.1 149.9 419.1 137.4 406.6L9.372 278.6C-3.124 266.1-3.124 245.9 9.372 233.4C21.87 220.9 42.13 220.9 54.63 233.4L159.1 338.7L393.4 105.4C405.9 92.88 426.1 92.88 438.6 105.4H438.6z"></path>
  </svg>
  <svg xmlns="http://www.w3.org/2000/svg" height="24" width="24" viewBox="0 0 24 24" fill="#fff" x="315" y="96" opacity="100%">
    <path d="M0 0h24v24H0V0z" fill="none"></path>
    <path d="M8.59 16.59 13.17 12 8.59 7.41 10 6l6 6-6 6-1.41-1.41z"></path>
  </svg>
  <svg xmlns="http://www.w3.org/2000/svg" height="24" width="24" viewBox="0 0 24 24" fill="#121212" x="36" y="488" opacity="100%">
    <path d="M0 0h24v24H0z" fill="none"></path>
    <path d="m21.41 11.58-9-9C12.05 2.22 11.55 2 11 2H4c-1.1 0-2 .9-2 2v7c0 .55.22 1.05.59 1.42l9 9c.36.36.86.58 1.41.58.55 0 1.05-.22 1.41-.59l7-7c.37-.36.59-.86.59-1.41 0-.55-.23-1.06-.59-1.42zM5.5 7C4.67 7 4 6.33 4 5.5S4.67 4 5.5 4 7 4.67 7 5.5 6.33 7 5.5 7z"></path>
  </svg>
  <svg xmlns="http://www.w3.org/2000/svg" height="24" width="24" viewBox="0 0 24 24" fill="#fff" x="315" y="208" opacity="100%">
    <path d="M0 0h24v24H0V0z" fill="none"></path>
    <path d="M8.59 16.59 13.17 12 8.59 7.41 10 6l6 6-6 6-1.41-1.41z"></path>
  </svg>
  <svg xmlns="http://www.w3.org/2000/svg" height="24" width="24" viewBox="0 0 24 24" fill="#fff" x="315" y="152" opacity="100%">
    <path d="M0 0h24v24H0V0z" fill="none"></path>
    <path d="M8.59 16.59 13.17 12 8.59 7.41 10 6l6 6-6 6-1.41-1.41z"></path>
  </svg>
  <g opacity="100%">
    <text x="76" y="112.5" font-family="Montserrat" font-size="12" fill="#fff" letter-spacing="0" font-weight="500" font-style="normal">New bar regulations in effect.</text>
  </g>
  <g opacity="100%">
    <text x="76" y="336.5" font-family="Montserrat" font-size="12" fill="#121212" letter-spacing="0" font-weight="500" font-style="normal">Specials at nearby bars tonight.</text>
  </g>
  <g opacity="100%" mask="url(#mask_ttgko667pi)">
    <text x="76" y="224.5" font-family="Montserrat" font-size="12" fill="#fff" letter-spacing="0" font-weight="500" font-style="normal">Bookmark your favorite brewery</text>
    <text x="76" y="240.5" font-family="Montserrat" font-size="12" fill="#fff" letter-spacing="0" font-weight="500" font-style="normal">spots.</text>
    <defs>
      <mask id="mask_ttgko667pi">
        <rect x="76" y="212" width="232" height="16" fill="white"></rect>
      </mask>
    </defs>
  </g>
  <g opacity="100%">
    <text x="76" y="448.5" font-family="Montserrat" font-size="12" fill="#121212" letter-spacing="0" font-weight="500" font-style="normal">Reminder: Happy hour at 5pm today.</text>
  </g>
  <g opacity="100%" mask="url(#mask_j9zotzvene)">
    <text x="76" y="168.5" font-family="Montserrat" font-size="12" fill="#fff" letter-spacing="0" font-weight="500" font-style="normal">Discover top-rated restaurants</text>
    <text x="76" y="184.5" font-family="Montserrat" font-size="12" fill="#fff" letter-spacing="0" font-weight="500" font-style="normal">nearby.</text>
    <defs>
      <mask id="mask_j9zotzvene">
        <rect x="76" y="156" width="213" height="16" fill="white"></rect>
      </mask>
    </defs>
  </g>
  <g opacity="100%" mask="url(#mask_ol9g78rp2l)">
    <text x="76" y="392.5" font-family="Montserrat" font-size="12" fill="#121212" letter-spacing="0" font-weight="500" font-style="normal">New restaurant added to your</text>
    <text x="76" y="408.5" font-family="Montserrat" font-size="12" fill="#121212" letter-spacing="0" font-weight="500" font-style="normal">bookmarks.</text>
    <defs>
      <mask id="mask_ol9g78rp2l">
        <rect x="76" y="380" width="247" height="16" fill="white"></rect>
      </mask>
    </defs>
  </g>
  <g opacity="100%" mask="url(#mask_0ql7shfsx)">
    <text x="76" y="280.5" font-family="Montserrat" font-size="12" fill="#121212" letter-spacing="0" font-weight="500" font-style="normal">New brewery added to your</text>
    <text x="76" y="296.5" font-family="Montserrat" font-size="12" fill="#121212" letter-spacing="0" font-weight="500" font-style="normal">bookmarks.</text>
    <defs>
      <mask id="mask_0ql7shfsx">
        <rect x="76" y="268" width="213" height="16" fill="white"></rect>
      </mask>
    </defs>
  </g>
  <g opacity="100%">
    <text x="76" y="504.5" font-family="Montserrat" font-size="12" fill="#121212" letter-spacing="0" font-weight="500" font-style="normal">Discover live music venues nearby.</text>
  </g>
  <g opacity="100%">
    <rect x="0" y="0" width="375" height="70" fill="#fff" filter="url(#filter_dshadow_10_0_2_0303031a)"></rect>
  </g>
  <g opacity="100%">
    <text x="80" y="38" font-family="Montserrat" font-size="24" fill="#121212" letter-spacing="0" font-weight="700" font-style="normal">
      <tspan x="108">Notifications</tspan>
    </text>
  </g>
  <svg xmlns="http://www.w3.org/2000/svg" viewBox="0 0 320 512" width="20" height="20" fill="#121212" x="20" y="20" opacity="100%">
    <path d="M224 480c-8.188 0-16.38-3.125-22.62-9.375l-192-192c-12.5-12.5-12.5-32.75 0-45.25l192-192c12.5-12.5 32.75-12.5 45.25 0s12.5 32.75 0 45.25L77.25 256l169.4 169.4c12.5 12.5 12.5 32.75 0 45.25C240.4 476.9 232.2 480 224 480z"></path>
  </svg>
  <g opacity="100%">
    <rect x="20" y="532" width="335" height="48" fill="#fff" rx="24" filter="url(#filter_dshadow_10_0_2_0303031a)"></rect>
  </g>
  <svg xmlns="http://www.w3.org/2000/svg" height="24" width="24" viewBox="0 0 24 24" fill="#121212" x="36" y="544" opacity="100%">
    <path d="M0 0h24v24H0z" fill="none"></path>
    <path d="m21.41 11.58-9-9C12.05 2.22 11.55 2 11 2H4c-1.1 0-2 .9-2 2v7c0 .55.22 1.05.59 1.42l9 9c.36.36.86.58 1.41.58.55 0 1.05-.22 1.41-.59l7-7c.37-.36.59-.86.59-1.41 0-.55-.23-1.06-.59-1.42zM5.5 7C4.67 7 4 6.33 4 5.5S4.67 4 5.5 4 7 4.67 7 5.5 6.33 7 5.5 7z"></path>
  </svg>
  <g opacity="100%">
    <text x="76" y="560.5" font-family="Montserrat" font-size="12" fill="#121212" letter-spacing="0" font-weight="500" font-style="normal">New brewery tour available this weekend.</text>
  </g>
  <g opacity="100%">
    <rect x="0" y="597" width="375" height="74" fill="#fff" filter="url(#filter_dshadow_10_0_2_0303031a)"></rect>
  </g>
  <svg xmlns="http://www.w3.org/2000/svg" viewBox="0 0 576 512" width="24" height="24" fill="#7f7f7f" x="72" y="613" opacity="100%">
    <path d="M575.8 255.5C575.8 273.5 560.8 287.6 543.8 287.6H511.8L512.5 447.7C512.6 483.2 483.9 512 448.5 512H128.1C92.75 512 64.09 483.3 64.09 448V287.6H32.05C14.02 287.6 0 273.5 0 255.5C0 246.5 3.004 238.5 10.01 231.5L266.4 8.016C273.4 1.002 281.4 0 288.4 0C295.4 0 303.4 2.004 309.5 7.014L564.8 231.5C572.8 238.5 576.9 246.5 575.8 255.5H575.8zM288 160C252.7 160 224 188.7 224 224C224 259.3 252.7 288 288 288C323.3 288 352 259.3 352 224C352 188.7 323.3 160 288 160zM256 320C211.8 320 176 355.8 176 400C176 408.8 183.2 416 192 416H384C392.8 416 400 408.8 400 400C400 355.8 364.2 320 320 320H256z"></path>
  </svg>
  <g opacity="100%">
    <text x="52" y="655" font-family="Montserrat" font-size="10" fill="#7f7f7f" letter-spacing="0" font-weight="600" font-style="normal">
      <tspan x="57">Residence</tspan>
    </text>
  </g>
  <g opacity="100%">
    <text x="156" y="655" font-family="Montserrat" font-size="10" fill="#7f7f7f" letter-spacing="0" font-weight="600" font-style="normal">
      <tspan x="161">Bookmark</tspan>
    </text>
  </g>
  <rect></rect>
  <svg xmlns="http://www.w3.org/2000/svg" height="24" width="24" viewBox="0 0 24 24" fill="#7f7f7f" x="176" y="613" opacity="100%">
    <path fill="none" d="M0 0h24v24H0z"></path>
    <path d="M21 7h-2v2h-2V7h-2V5h2V3h2v2h2v2zm-2 14-7-3-7 3V5c0-1.1.9-2 2-2h7a5.002 5.002 0 0 0 5 7.9V21z"></path>
  </svg>
  <svg xmlns="http://www.w3.org/2000/svg" viewBox="0 0 448 512" width="24" height="24" fill="#7f7f7f" x="280" y="613" opacity="100%">
    <path d="M224 256c70.7 0 128-57.31 128-128s-57.3-128-128-128C153.3 0 96 57.31 96 128S153.3 256 224 256zM274.7 304H173.3C77.61 304 0 381.6 0 477.3c0 19.14 15.52 34.67 34.66 34.67h378.7C432.5 512 448 496.5 448 477.3C448 381.6 370.4 304 274.7 304z"></path>
  </svg>
  <rect></rect>
  <g opacity="100%">
    <text x="260" y="655" font-family="Montserrat" font-size="10" fill="#7f7f7f" letter-spacing="0" font-weight="600" font-style="normal">
      <tspan x="270">Account</tspan>
    </text>
  </g>
  <rect></rect>
  <defs>
    <filter id="filter_dshadow_0_0_0_00000014" color-interpolation-filters="sRGB" filterUnits="userSpaceOnUse">
      <feFlood flood-opacity="0" result="bg-fix"></feFlood>
      <feColorMatrix in="SourceAlpha" type="matrix" values="0 0 0 0 0 0 0 0 0 0 0 0 0 0 0 0 0 0 127 0" result="alpha"></feColorMatrix>
      <feOffset dx="0" dy="0"></feOffset>
      <feGaussianBlur stdDeviation="0"></feGaussianBlur>
      <feComposite in2="alpha" operator="out"></feComposite>
      <feColorMatrix type="matrix" values="0 0 0 0 0 0 0 0 0 0 0 0 0 0 0 0 0 0 0.08 0"></feColorMatrix>
      <feBlend mode="normal" in2="bg-fix" result="bg-fix-filter_dshadow_0_0_0_00000014"></feBlend>
      <feBlend in="SourceGraphic" in2="bg-fix-filter_dshadow_0_0_0_00000014" result="shape"></feBlend>
    </filter>
    <filter id="filter_dshadow_10_0_2_0303031a" color-interpolation-filters="sRGB" filterUnits="userSpaceOnUse">
      <feFlood flood-opacity="0" result="bg-fix"></feFlood>
      <feColorMatrix in="SourceAlpha" type="matrix" values="0 0 0 0 0 0 0 0 0 0 0 0 0 0 0 0 0 0 127 0" result="alpha"></feColorMatrix>
      <feOffset dx="0" dy="2"></feOffset>
      <feGaussianBlur stdDeviation="5"></feGaussianBlur>
      <feComposite in2="alpha" operator="out"></feComposite>
      <feColorMatrix type="matrix" values="0 0 0 0 0.011764705882352941 0 0 0 0 0.011764705882352941 0 0 0 0 0.011764705882352941 0 0 0 0.1 0"></feColorMatrix>
      <feBlend mode="normal" in2="bg-fix" result="bg-fix-filter_dshadow_10_0_2_0303031a"></feBlend>
      <feBlend in="SourceGraphic" in2="bg-fix-filter_dshadow_10_0_2_0303031a" result="shape"></feBlend>
    </filter>
    <style id="google">@import url(https://fonts.googleapis.com/css2?family=Montserrat:ital,wght@0,100;0,200;0,300;0,400;0,500;0,600;0,700;0,800;0,900;1,100;1,200;1,300;1,400;1,500;1,600;1,700;1,800;1,900&amp;display=swap);
</style>
    <style id="brand"></style>
  </defs>
</svg>