
<svg xmlns="http://www.w3.org/2000/svg" xmlns:xlink="http://www.w3.org/1999/xlink" viewBox="0 0 375 782" width="375" height="782" fill="none">
  <rect width="375" height="782" fill="#fff"></rect>
  <g opacity="100%">
    <rect x="0" y="0" width="375" height="68" fill="#fff" filter="url(#filter_dshadow_10_0_2_0303031a)"></rect>
  </g>
  <svg xmlns="http://www.w3.org/2000/svg" viewBox="0 0 448 512" width="14" height="14" fill="#030303" x="16" y="27" opacity="100%">
    <path d="M447.1 256C447.1 273.7 433.7 288 416 288H109.3l105.4 105.4c12.5 12.5 12.5 32.75 0 45.25C208.4 444.9 200.2 448 192 448s-16.38-3.125-22.62-9.375l-160-160c-12.5-12.5-12.5-32.75 0-45.25l160-160c12.5-12.5 32.75-12.5 45.25 0s12.5 32.75 0 45.25L109.3 224H416C433.7 224 447.1 238.3 447.1 256z"></path>
  </svg>
  <g opacity="100%">
    <text x="69" y="35" font-family="Montserrat" font-size="20" fill="#030303" letter-spacing="0" font-weight="700" font-style="normal">
      <tspan x="135">objectives</tspan>
    </text>
  </g>
  <svg xmlns="http://www.w3.org/2000/svg" height="17" width="17" viewBox="0 0 24 24" fill="#030303" x="342" y="25" opacity="100%">
    <path d="M12 22c1.1 0 2-.9 2-2h-4a2 2 0 0 0 2 2zm6-6v-5c0-3.07-1.64-5.64-4.5-6.32V4c0-.83-.67-1.5-1.5-1.5s-1.5.67-1.5 1.5v.68C7.63 5.36 6 7.92 6 11v5l-2 2v1h16v-1l-2-2z"></path>
  </svg>
  <g opacity="100%">
    <text x="16" y="107.5" font-family="Montserrat" font-size="24" fill="#030303" letter-spacing="0" font-weight="600" font-style="normal">Record your debauchery</text>
  </g>
  <g opacity="100%">
    <rect x="16" y="132" width="343" height="108" fill="#030303" rx="24" filter="url(#filter_dshadow_10_0_2_0303031a)"></rect>
  </g>
  <g opacity="100%">
    <text x="32" y="167.5" font-family="Montserrat" font-size="18" fill="#fff" letter-spacing="0" font-weight="700" font-style="normal">Spirits Malort Shot - 10 pts</text>
  </g>
  <g opacity="100%">
    <text x="32" y="198" font-family="Montserrat" font-size="14" fill="#fff" letter-spacing="0" font-weight="400" font-style="normal">Visit at least 3 local bars and try their</text>
    <text x="32" y="214" font-family="Montserrat" font-size="14" fill="#fff" letter-spacing="0" font-weight="400" font-style="normal">signature cocktails</text>
  </g>
  <g opacity="100%">
    <rect x="16" y="256" width="343" height="108" fill="#fff" rx="24" filter="url(#filter_dshadow_10_0_2_0303031a)"></rect>
  </g>
  <g opacity="100%">
    <text x="32" y="291.5" font-family="Montserrat" font-size="18" fill="#030303" letter-spacing="0" font-weight="700" font-style="normal">Tequila Shot</text>
  </g>
  <g opacity="100%">
    <text x="32" y="322" font-family="Montserrat" font-size="14" fill="#030303" letter-spacing="0" font-weight="400" font-style="normal">Dine at different local restaurants and</text>
    <text x="32" y="338" font-family="Montserrat" font-size="14" fill="#030303" letter-spacing="0" font-weight="400" font-style="normal">discover new cuisines</text>
  </g>
  <g opacity="100%">
    <rect x="16" y="380" width="343" height="108" fill="#fff" rx="24" filter="url(#filter_dshadow_10_0_2_0303031a)"></rect>
  </g>
  <g opacity="100%">
    <text x="32" y="415.5" font-family="Montserrat" font-size="18" fill="#030303" letter-spacing="0" font-weight="700" font-style="normal">Spirits Beer and a Bourbon</text>
  </g>
  <g opacity="100%">
    <text x="32" y="446" font-family="Montserrat" font-size="14" fill="#030303" letter-spacing="0" font-weight="400" font-style="normal">Tour local breweries and taste their craft</text>
    <text x="32" y="462" font-family="Montserrat" font-size="14" fill="#030303" letter-spacing="0" font-weight="400" font-style="normal">beers</text>
  </g>
  <svg xmlns="http://www.w3.org/2000/svg" height="23" width="23" viewBox="0 0 24 24" fill="#fff" x="316" y="150" opacity="100%">
    <path d="M0 0h24v24H0z" fill="none"></path>
    <path d="M9 16.17 4.83 12l-1.42 1.41L9 19 21 7l-1.41-1.41z"></path>
  </svg>
  <g opacity="100%">
    <rect x="0" y="718" width="375" height="64" fill="#fff" filter="url(#filter_dshadow_10_0_2_0303031a)"></rect>
  </g>
  <svg xmlns="http://www.w3.org/2000/svg" viewBox="0 0 576 512" width="27" height="27" fill="#030303" x="38" y="736.5" opacity="100%">
    <path d="M575.8 255.5C575.8 273.5 560.8 287.6 543.8 287.6H511.8L512.5 447.7C512.5 450.5 512.3 453.1 512 455.8V472C512 494.1 494.1 512 472 512H456C454.9 512 453.8 511.1 452.7 511.9C451.3 511.1 449.9 512 448.5 512H392C369.9 512 352 494.1 352 472V384C352 366.3 337.7 352 320 352H256C238.3 352 224 366.3 224 384V472C224 494.1 206.1 512 184 512H128.1C126.6 512 125.1 511.9 123.6 511.8C122.4 511.9 121.2 512 120 512H104C81.91 512 64 494.1 64 472V360C64 359.1 64.03 358.1 64.09 357.2V287.6H32.05C14.02 287.6 0 273.5 0 255.5C0 246.5 3.004 238.5 10.01 231.5L266.4 8.016C273.4 1.002 281.4 0 288.4 0C295.4 0 303.4 2.004 309.5 7.014L564.8 231.5C572.8 238.5 576.9 246.5 575.8 255.5L575.8 255.5z"></path>
  </svg>
  <svg xmlns="http://www.w3.org/2000/svg" viewBox="0 0 576 512" width="27" height="27" fill="#030303" x="109" y="736.5" opacity="100%">
    <path d="M572.1 82.38C569.5 71.59 559.8 64 548.7 64h-100.8c.2422-12.45 .1078-23.7-.1559-33.02C447.3 13.63 433.2 0 415.8 0H160.2C142.8 0 128.7 13.63 128.2 30.98C127.1 40.3 127.8 51.55 128.1 64H27.26C16.16 64 6.537 71.59 3.912 82.38C3.1 85.78-15.71 167.2 37.07 245.9c37.44 55.82 100.6 95.03 187.5 117.4c18.7 4.805 31.41 22.06 31.41 41.37C256 428.5 236.5 448 212.6 448H208c-26.51 0-47.99 21.49-47.99 48c0 8.836 7.163 16 15.1 16h223.1c8.836 0 15.1-7.164 15.1-16c0-26.51-21.48-48-47.99-48h-4.644c-23.86 0-43.36-19.5-43.36-43.35c0-19.31 12.71-36.57 31.41-41.37c86.96-22.34 150.1-61.55 187.5-117.4C591.7 167.2 572.9 85.78 572.1 82.38zM77.41 219.8C49.47 178.6 47.01 135.7 48.38 112h80.39c5.359 59.62 20.35 131.1 57.67 189.1C137.4 281.6 100.9 254.4 77.41 219.8zM498.6 219.8c-23.44 34.6-59.94 61.75-109 81.22C426.9 243.1 441.9 171.6 447.2 112h80.39C528.1 135.7 526.5 178.7 498.6 219.8z"></path>
  </svg>
  <svg xmlns="http://www.w3.org/2000/svg" viewBox="0 0 448 512" width="21" height="21" fill="#030303" x="180" y="739.5" opacity="100%">
    <path d="M256 32V51.2C329 66.03 384 130.6 384 208V226.8C384 273.9 401.3 319.2 432.5 354.4L439.9 362.7C448.3 372.2 450.4 385.6 445.2 397.1C440 408.6 428.6 416 416 416H32C19.4 416 7.971 408.6 2.809 397.1C-2.353 385.6-.2883 372.2 8.084 362.7L15.5 354.4C46.74 319.2 64 273.9 64 226.8V208C64 130.6 118.1 66.03 192 51.2V32C192 14.33 206.3 0 224 0C241.7 0 256 14.33 256 32H256zM224 512C207 512 190.7 505.3 178.7 493.3C166.7 481.3 160 464.1 160 448H288C288 464.1 281.3 481.3 269.3 493.3C257.3 505.3 240.1 512 224 512z"></path>
  </svg>
  <svg xmlns="http://www.w3.org/2000/svg" viewBox="0 0 576 512" width="27" height="27" fill="#030303" x="245" y="736.5" opacity="100%">
    <path d="M384 476.1L192 421.2V35.93L384 90.79V476.1zM416 88.37L543.1 37.53C558.9 31.23 576 42.84 576 59.82V394.6C576 404.4 570 413.2 560.9 416.9L416 474.8V88.37zM15.09 95.13L160 37.17V423.6L32.91 474.5C17.15 480.8 0 469.2 0 452.2V117.4C0 107.6 5.975 98.78 15.09 95.13V95.13z"></path>
  </svg>
  <svg xmlns="http://www.w3.org/2000/svg" viewBox="0 0 448 512" width="21" height="21" fill="#030303" x="316" y="739.5" opacity="100%">
    <path d="M224 256c70.7 0 128-57.31 128-128s-57.3-128-128-128C153.3 0 96 57.31 96 128S153.3 256 224 256zM274.7 304H173.3C77.61 304 0 381.6 0 477.3c0 19.14 15.52 34.67 34.66 34.67h378.7C432.5 512 448 496.5 448 477.3C448 381.6 370.4 304 274.7 304z"></path>
  </svg>
  <svg xmlns="http://www.w3.org/2000/svg" viewBox="0 0 448 512" width="23" height="23" fill="#030303" x="316" y="274" opacity="100%">
    <path d="M438.6 278.6l-160 160C272.4 444.9 264.2 448 256 448s-16.38-3.125-22.62-9.375c-12.5-12.5-12.5-32.75 0-45.25L338.8 288H32C14.33 288 .0016 273.7 .0016 256S14.33 224 32 224h306.8l-105.4-105.4c-12.5-12.5-12.5-32.75 0-45.25s32.75-12.5 45.25 0l160 160C451.1 245.9 451.1 266.1 438.6 278.6z"></path>
  </svg>
  <svg xmlns="http://www.w3.org/2000/svg" viewBox="0 0 448 512" width="23" height="23" fill="#030303" x="321" y="399" opacity="100%">
    <path d="M438.6 278.6l-160 160C272.4 444.9 264.2 448 256 448s-16.38-3.125-22.62-9.375c-12.5-12.5-12.5-32.75 0-45.25L338.8 288H32C14.33 288 .0016 273.7 .0016 256S14.33 224 32 224h306.8l-105.4-105.4c-12.5-12.5-12.5-32.75 0-45.25s32.75-12.5 45.25 0l160 160C451.1 245.9 451.1 266.1 438.6 278.6z"></path>
  </svg>
  <g opacity="100%">
    <rect x="12" y="508" width="343" height="108" fill="#fff" rx="24" filter="url(#filter_dshadow_10_0_2_0303031a)"></rect>
  </g>
  <g opacity="100%">
    <text x="28" y="543.5" font-family="Montserrat" font-size="18" fill="#030303" letter-spacing="0" font-weight="700" font-style="normal">Get a Lap-dance</text>
  </g>
  <g opacity="100%">
    <text x="28" y="574" font-family="Montserrat" font-size="14" fill="#030303" letter-spacing="0" font-weight="400" font-style="normal">Tour local breweries and taste their craft</text>
    <text x="28" y="590" font-family="Montserrat" font-size="14" fill="#030303" letter-spacing="0" font-weight="400" font-style="normal">beers</text>
  </g>
  <svg xmlns="http://www.w3.org/2000/svg" viewBox="0 0 448 512" width="23" height="23" fill="#030303" x="316" y="527" opacity="100%">
    <path d="M438.6 278.6l-160 160C272.4 444.9 264.2 448 256 448s-16.38-3.125-22.62-9.375c-12.5-12.5-12.5-32.75 0-45.25L338.8 288H32C14.33 288 .0016 273.7 .0016 256S14.33 224 32 224h306.8l-105.4-105.4c-12.5-12.5-12.5-32.75 0-45.25s32.75-12.5 45.25 0l160 160C451.1 245.9 451.1 266.1 438.6 278.6z"></path>
  </svg>
  <defs>
    <filter id="filter_dshadow_10_0_2_0303031a" color-interpolation-filters="sRGB" filterUnits="userSpaceOnUse">
      <feFlood flood-opacity="0" result="bg-fix"></feFlood>
      <feColorMatrix in="SourceAlpha" type="matrix" values="0 0 0 0 0 0 0 0 0 0 0 0 0 0 0 0 0 0 127 0" result="alpha"></feColorMatrix>
      <feOffset dx="0" dy="2"></feOffset>
      <feGaussianBlur stdDeviation="5"></feGaussianBlur>
      <feComposite in2="alpha" operator="out"></feComposite>
      <feColorMatrix type="matrix" values="0 0 0 0 0.011764705882352941 0 0 0 0 0.011764705882352941 0 0 0 0 0.011764705882352941 0 0 0 0.1 0"></feColorMatrix>
      <feBlend mode="normal" in2="bg-fix" result="bg-fix-filter_dshadow_10_0_2_0303031a"></feBlend>
      <feBlend in="SourceGraphic" in2="bg-fix-filter_dshadow_10_0_2_0303031a" result="shape"></feBlend>
    </filter>
    <filter id="filter_dshadow_0_0_0_00000014" color-interpolation-filters="sRGB" filterUnits="userSpaceOnUse">
      <feFlood flood-opacity="0" result="bg-fix"></feFlood>
      <feColorMatrix in="SourceAlpha" type="matrix" values="0 0 0 0 0 0 0 0 0 0 0 0 0 0 0 0 0 0 127 0" result="alpha"></feColorMatrix>
      <feOffset dx="0" dy="0"></feOffset>
      <feGaussianBlur stdDeviation="0"></feGaussianBlur>
      <feComposite in2="alpha" operator="out"></feComposite>
      <feColorMatrix type="matrix" values="0 0 0 0 0 0 0 0 0 0 0 0 0 0 0 0 0 0 0.08 0"></feColorMatrix>
      <feBlend mode="normal" in2="bg-fix" result="bg-fix-filter_dshadow_0_0_0_00000014"></feBlend>
      <feBlend in="SourceGraphic" in2="bg-fix-filter_dshadow_0_0_0_00000014" result="shape"></feBlend>
    </filter>
    <filter id="filter_dshadow_10_0_2_0000001a" color-interpolation-filters="sRGB" filterUnits="userSpaceOnUse">
      <feFlood flood-opacity="0" result="bg-fix"></feFlood>
      <feColorMatrix in="SourceAlpha" type="matrix" values="0 0 0 0 0 0 0 0 0 0 0 0 0 0 0 0 0 0 127 0" result="alpha"></feColorMatrix>
      <feOffset dx="0" dy="2"></feOffset>
      <feGaussianBlur stdDeviation="5"></feGaussianBlur>
      <feComposite in2="alpha" operator="out"></feComposite>
      <feColorMatrix type="matrix" values="0 0 0 0 0 0 0 0 0 0 0 0 0 0 0 0 0 0 0.1 0"></feColorMatrix>
      <feBlend mode="normal" in2="bg-fix" result="bg-fix-filter_dshadow_10_0_2_0000001a"></feBlend>
      <feBlend in="SourceGraphic" in2="bg-fix-filter_dshadow_10_0_2_0000001a" result="shape"></feBlend>
    </filter>
    <style id="google">@import url(https://fonts.googleapis.com/css2?family=Montserrat:ital,wght@0,100;0,200;0,300;0,400;0,500;0,600;0,700;0,800;0,900;1,100;1,200;1,300;1,400;1,500;1,600;1,700;1,800;1,900&amp;display=swap);
</style>
    <style id="brand"></style>
  </defs>
</svg>